<svg width="48" height="48" version="1.1" xmlns="http://www.w3.org/2000/svg">
<g fill="#fff">
 <path d="m24 2a22 22 0 0 0 -22 22 22 22 0 0 0 22 22 22 22 0 0 0 22 -22 22 22 0 0 0 -22 -22zm-4.83 3.98l3.2 3.49-6.91 5.13-2.55 6.82 9.43 2.58-9.47 14.95a18.67 18.67 0 0 1 -2.78 -2.54l-1.48-12.41 4.31-2.58-6.51-3.58a18.67 18.67 0 0 1 12.77 -11.87zm13.12 1.33a18.67 18.67 0 0 1 6.18 4.93l-9.35 0.65 3.17-5.58zm6.96 5.98a18.67 18.67 0 0 1 3.41 10.71 18.67 18.67 0 0 1 -6.21 13.87l-0.55-0.14-0.84-10.27-5.95-1.71-1.7-6.87 11.85-5.61z"/>
</g>
</svg>
