<svg width="48" height="48" version="1.1" xmlns="http://www.w3.org/2000/svg">
<g fill="#fff">
 <path d="m5 5v31.75l12.67 6.25 12.67-6.25 12.67 6.25v-31.75l-4.352-2.15a8.5 8.5 0 0 1 0.35 2.396 8.5 8.5 0 0 1 -0.08 1.08l1.078 0.53v25.06l-7.83-3.87v-6.26c-1.05 1.76-1.82 2.9-1.83 2.93v2.43l-10.83 5.346v-25.06l2.561-1.264a8.5 8.5 0 0 1 -0.061 -0.93 8.5 8.5 0 0 1 0.41 -2.59l-4.74 2.34-12.67-6.25zm3 4.83l9.666 4.77v25.06l-9.666-4.77v-25.06z"/>
 <path d="m30.5 5a6.5 6.5 0 0 0 -6.5 6.5 6.5 6.5 0 0 0 6.5 6.5 6.5 6.5 0 0 0 6.5 -6.5 6.5 6.5 0 0 0 -6.5 -6.5zm0 4a2.5 2.5 0 0 1 2.5 2.5 2.5 2.5 0 0 1 -2.5 2.5 2.5 2.5 0 0 1 -2.5 -2.5 2.5 2.5 0 0 1 2.5 -2.5z"/>
 <path d="m24.07 12.46c3.93 3.54 8.93 3.54 12.86 0-0.93 6.54-6.43 14.54-6.429 14.54s-5.5-8-6.429-14.54z"/>
</g>
</svg>
