<svg width="48" height="48" version="1.1" xmlns="http://www.w3.org/2000/svg">
<g fill="#fff">
 <path d="m9.042 3c-0.485 0-0.875 0.39-0.875 0.875 0 0.0601 0.00465 0.1149 0.01466 0.1701-2.655 0.24-3.27 1.485-3.515 2.955l-0.5 3c-4.097e-4 0.0019-0.00154 0.0038-0.00197 0.0076-0.02192-0.0015-0.04309-0.0076-0.06543-0.0076h-0.1992c-0.4986 3.8e-5 -0.9004 0.4018-0.9004 0.9004v1.574c0 0.4986 0.4018 0.9004 0.9004 0.9004h0.01663v5.375c0 0.5959 0.3476 1.105 0.8496 1.348v1.402c0 0.277 0.223 0.5 0.5 0.5h2.4c0.277 0 0.5-0.223 0.5-0.5v-1.25h7v1.25c0 0.277 0.223 0.5 0.5 0.5h2.4c0.277 0 0.5-0.223 0.5-0.5v-1.402c0.502-0.2423 0.8496-0.7517 0.8496-1.348v-5.375h0.01659c0.4986 0 0.8994-0.4018 0.8994-0.9004v-1.574c1e-6 -0.4986-0.4008-0.9004-0.8994-0.9004h-0.2002c-0.02211 0-0.04274 0.0038-0.06445 0.0076-4.14e-4 -0.0019-0.0015-0.0038-0.0019-0.0076l-0.5-3c-0.245-1.47-0.8646-2.715-3.515-2.955 0.01002-0.0548 0.01467-0.11 0.01467-0.1697 0-0.485-0.39-0.875-0.875-0.875zm0.5654 0.875h4.125c0.24 0 0.4395 0.1954 0.4395 0.4404 0 0.2449-0.1945 0.4394-0.4395 0.4394h-4.125c-0.24 0-0.4404-0.1943-0.4404-0.4394 0-0.2449 0.1954-0.4404 0.4404-0.4404zm0.5645 2.625h3c1.5 0 3.845 0.405 4 1.5l0.5 3.5c0.155 1.095-0.89 1-2 1h-8c-1.11 0-2.155 0.09487-2-1l0.5-3.5c0.155-1.095 2.5-1.5 4-1.5zm-3.25 8.665a1.25 1.25 0 0 1 1.25 1.25 1.25 1.25 0 0 1 -1.25 1.25 1.25 1.25 0 0 1 -1.25 -1.25 1.25 1.25 0 0 1 1.25 -1.25zm9.5 0a1.25 1.25 0 0 1 1.25 1.25 1.25 1.25 0 0 1 -1.25 1.25 1.25 1.25 0 0 1 -1.25 -1.25 1.25 1.25 0 0 1 1.25 -1.25z"/>
 <path d="m33.75 6.776c-1.624 0.01512-3.861 0.5178-4.412 1.748-0.2319 0.5178-0.5694 1.432-0.9175 2.429-0.1848 0.5283-0.3656 1.004-0.5329 1.437h-0.4928c-0.4162 0-0.9931 0.3201-1.151 0.7512l-0.1838 0.5008c-0.1583 0.4312-0.015 0.7512 0.4012 0.7512h0.6916c-0.1117 0.3796-0.1693 0.6937-0.1693 1.002v6.105c0 0.2774 0.2234 0.5008 0.5008 0.5008h2.754c0.2774 0 0.5008-0.2234 0.5008-0.5008v-1.347h9.515v1.347c0 0.2774 0.2234 0.5008 0.5008 0.5008h2.754c0.2775 0 0.5008-0.2234 0.5008-0.5008v-6.105c0-0.308-0.0576-0.622-0.1693-1.002h0.6916c0.4162 0 0.5589-0.3201 0.4011-0.7512l-0.1838-0.5008c-0.1582-0.4312-0.7352-0.7512-1.151-0.7512h-0.4928c-0.1678-0.4332-0.3485-0.9085-0.5329-1.437-0.3481-0.9966-0.6856-1.911-0.9175-2.429-0.5504-1.23-2.788-1.733-4.412-1.748-0.5414-0.0076-1.121 0.0038-1.747 0.0038s-1.206-0.0076-1.747-0.0038zm1.747 1.474c1.502 0 2.132 0.03893 3.005 0.1334 0.8724 0.09373 1.883 0 2.285 1.502l0.8569 2.843c-1.639 0.4392-2.641 0.663-6.145 0.663-3.504 0-4.507-0.2237-6.145-0.663l0.8569-2.843c0.4027-1.502 1.412-1.409 2.285-1.502 0.8724-0.09373 1.502-0.1334 3.005-0.1334zm-6.836 6.986c0.1312 0.0038 0.3506 0.04158 0.7011 0.1565 0.7021 0.2298 1.933 0.7437 2.191 1.002 0.2579 0.2578 0.2885 0.8674-0.5634 0.8674h-2.003c-0.6851-0.1164-1.032-0.367-1.032-0.7227v-0.6455c0-0.3439 0.1012-0.6416 0.5314-0.6416 0 0 0.04357-0.02268 0.1753-0.01512zm13.67 0c0.1312-0.0076 0.1753 0.01512 0.1753 0.01512 0.4287 0 0.5314 0.2974 0.5314 0.6415v0.6455c0 0.356-0.3465 0.6065-1.032 0.7226h-2.003c-0.8519 0-0.8213-0.6095-0.5634-0.8674 0.2579-0.2578 1.489-0.7722 2.191-1.002 0.3511-0.1145 0.5699-0.1504 0.7011-0.1565z"/>
 <path d="m20.9 26c-0.9931 0.05556-2.339 0.9499-2.912 1.516l-2.422 2.428h-11.7l-0.8652 1.068 8.492 2.998-2.998 2.996-3.994 0.7187-1.5 1.779 4.746 0.748 0.748 4.746 1.779-1.5 0.7188-3.994 2.996-2.998 2.998 8.492 1.068-0.8652v-11.7l2.428-2.422c0.7542-0.7641 2.092-2.902 1.248-3.746-0.211-0.2109-0.5029-0.2861-0.834-0.2676z"/>
 <path d="m28.9 28.1c-0.09943 0-0.1797 0.109-0.1797 0.2441 0 0.1352 0.08026 0.2441 0.1797 0.2441h0.5957c0.5569 0 1.661 0.5067 1.947 1.664h0.8047c0.286-1.157 1.39-1.664 1.947-1.664h0.5801c0.09943 0 0.1797-0.109 0.1797-0.2441 0-0.1352-0.08026-0.2441-0.1797-0.2441zm1.99 0.4883h1.908c-0.256 0.2045-0.9049 0.7957-0.8594 1.35h-0.1875c0.04549-0.5539-0.6054-1.145-0.8613-1.35zm-2.676 1.664c-0.129 0-0.4133-0.04004-0.6328 0.4492-0.2195 0.4894-0.4922 1.304-0.8066 2.193-0.315 0.8899-0.6394 2.294-0.6719 2.898-0.07699 1.448-0.1074 3.021-0.1074 4.437 0 1.125 0.9804 2.381 1.777 2.381h17.22v-3.168c-3.735-0.8089-7.514-2.919-9.344-8.152-0.188-0.5379-0.983-1.037-1.377-1.037zm-0.07617 0.9922h5.856c0.2775-0.0035 0.3868 0.3329 0.4473 0.4922 0.2785 0.7349 0.6641 1.913 0.6641 2.279 0 0.2139-0.05627 0.416-0.3027 0.416h-7.473c-0.2465 0-0.3027-0.2021-0.3027-0.416 0-0.3666 0.3861-1.544 0.6641-2.279 0.06049-0.1595 0.1698-0.4962 0.4473-0.4922zm8.256 3.539c0.4309 0.5399 0.8655 1.037 1.316 1.488v2.863c-0.4039-0.198-0.8063-0.405-1.199-0.627-0.045-1.131-0.1002-0.7687-0.1172-2.291zm1.965 2.092c0.3199 0.2831 0.6452 0.5547 0.9922 0.8066 0.04849 0.03402 0.1024 0.06559 0.1524 0.09961v2.143c-0.3839-0.1485-0.7651-0.3128-1.145-0.4844zm-10.49 0.8262a0.7499 0.7999 0 0 1 0.75 0.7988 0.7499 0.7999 0 0 1 -0.75 0.8008 0.7499 0.7999 0 0 1 -0.75 -0.8008 0.7499 0.7999 0 0 1 0.75 -0.7988zm5.824 0a0.7499 0.7999 0 0 1 0.75 0.7988 0.7499 0.7999 0 0 1 -0.75 0.8008 0.7499 0.7999 0 0 1 -0.75 -0.8008 0.7499 0.7999 0 0 1 0.75 -0.7988zm6.35 0.418c0.3739 0.2181 0.7588 0.4101 1.137 0.5781v1.787c-0.3794-0.1115-0.7578-0.2342-1.137-0.3691zm1.572 0.7637c0.3055 0.1236 0.6053 0.2273 0.9043 0.3183v1.631c-0.3005-0.06501-0.6008-0.1371-0.9043-0.2188zm1.322 0.4375c0.24 0.0635 0.4816 0.1217 0.7246 0.1738v1.549c-0.2395-0.03402-0.4821-0.08243-0.7246-0.1289zm1.105 0.25c0.224 0.0412 0.3849 0.06675 0.5898 0.09963v1.482c-0.194-0.01512-0.3929-0.04222-0.5898-0.06641zm-11.12 3.461v0.8145h-3.24v-0.8125h-2.221v0.8066h-1.461v1.16h10.32c1.37-0.7959 4.512-1.053 8.674-1.145v-0.8242z"/>
</g>
</svg>
