<svg width="48" height="48" version="1.1" xmlns="http://www.w3.org/2000/svg">
<g fill="#fff">
 <path d="m18.75 5c-0.97 0-1.75 0.78-1.75 1.75 0 0.12 0.01 0.23 0.03 0.34-5.31 0.48-6.54 2.97-7.03 5.91l-1 6c-0.52 3.09-3.01 4.8-0.5 4.98v12.52c0 1.66 1.34 3 3 3h25c1.66 0 3-1.34 3-3v-12.52c2.51-0.18 0.02-1.89-0.5-4.98l-1-6c-0.49-2.94-1.73-5.43-7.03-5.91 0.02-0.11 0.03-0.22 0.03-0.34 0-0.97-0.78-1.75-1.75-1.75h-10.5zm1.13 1.75h8.25c0.48 0 0.88 0.39 0.88 0.88s-0.39 0.88-0.88 0.88h-8.25c-0.48 0-0.88-0.39-0.88-0.88s0.39-0.88 0.88-0.88zm1.13 5.25h6c3 0 7.69 0.81 8 3l1 7c0.31 2.19-1.78 2-4 2h-16c-2.22 0-4.31 0.19-4-2l1-7c0.31-2.19 5-3 8-3zm-6.5 17.33a2.5 2.5 0 0 1 2.5 2.5 2.5 2.5 0 0 1 -2.5 2.5 2.5 2.5 0 0 1 -2.5 -2.5 2.5 2.5 0 0 1 2.5 -2.5zm19 0a2.5 2.5 0 0 1 2.5 2.5 2.5 2.5 0 0 1 -2.5 2.5 2.5 2.5 0 0 1 -2.5 -2.5 2.5 2.5 0 0 1 2.5 -2.5z"/>
 <rect x="10.2" y="37" width="6.8" height="6" rx="1" ry="1"/>
 <rect x="31.0" y="37" width="6.8" height="6" rx="1" ry="1"/>
 <rect x="06.666" y="19" width="4" height="6.75" rx="1.8" ry="1.8"/>
 <rect x="37.333" y="19" width="4" height="6.75" rx="1.8" ry="1.8"/>
</g>
</svg>
