<svg width="48" height="48" version="1.1" xmlns="http://www.w3.org/2000/svg">
<g fill="#fff">
 <path d="m20.51 8.791c-3.242 0.029-7.71 1.034-8.809 3.49-0.463 1.034-1.137 2.86-1.832 4.85-0.369 1.055-0.73 2.004-1.064 2.869h-0.984c-0.831 0-1.983 0.639-2.299 1.5l-0.367 1c-0.316 0.861-0.03 1.5 0.801 1.5h1.381c-0.223 0.758-0.338 1.385-0.338 2v12.19c0 0.554 0.446 1 1 1h5.5c0.554 0 1-0.446 1-1v-2.689h19v2.689c0 0.554 0.446 1 1 1h5.5c0.554 0 1-0.446 1-1v-12.19c0-0.615-0.115-1.242-0.338-2h1.381c0.831 0 1.116-0.639 0.801-1.5l-0.367-1c-0.316-0.861-1.468-1.5-2.299-1.5h-0.984c-0.335-0.865-0.696-1.814-1.064-2.869-0.695-1.99-1.369-3.815-1.832-4.85-1.099-2.456-5.566-3.461-8.809-3.49-1.081-0.01-2.238 0.01-3.488 0.01s-2.408-0.02-3.488-0.01zm3.488 2.943c3 0 4.258 0.078 6 0.266 1.742 0.187 3.759 0 4.562 3l1.711 5.676c-3.273 0.877-5.273 1.324-12.27 1.324s-9-0.447-12.27-1.324l1.711-5.676c0.804-3 2.82-2.813 4.562-3s3-0.266 6-0.266zm-13.65 13.95c0.262 0.013 0.7 0.083 1.4 0.313 1.402 0.459 3.86 1.485 4.375 2s0.576 1.732-1.125 1.732h-4c-1.368-0.232-2.061-0.733-2.061-1.443v-1.289c0-0.687 0.202-1.281 1.061-1.281 0 0 0.087-0.044 0.35-0.031zm27.3 0c0.262-0.013 0.35 0.031 0.35 0.031 0.856 0 1.061 0.594 1.061 1.281v1.289c0 0.711-0.692 1.211-2.061 1.443h-4c-1.701 0-1.64-1.217-1.125-1.732s2.973-1.542 4.375-2c0.701-0.229 1.138-0.3 1.4-0.313z"/>
</g>
</svg>
