<svg xmlns="http://www.w3.org/2000/svg" height="48" width="48" version="1.1" viewBox="0 0 48 48" fill="#fff">
 <path d="m17 9c-2.216 0-4 1.718-4 3.852v18.3c0 1.968 1.522 3.563 3.496 3.803l-4.43 10.05h2.732l4.4-10h9.586l4.4 10h2.732l-4.422-10.05c1.98-0.24 3.5-1.83 3.5-3.8v-18.3c0-2.13-1.78-3.85-4-3.85h-14zm0 3h14c1.108 0 2 0.892 2 2v5c0 1.108-0.892 2-2 2h-14c-1.108 0-2-0.892-2-2v-5c0-1.108 0.892-2 2-2zm1 15.5c1.385 0 2.5 1.115 2.5 2.5s-1.115 2.5-2.5 2.5-2.5-1.115-2.5-2.5 1.115-2.5 2.5-2.5zm12 0c1.385 0 2.5 1.115 2.5 2.5s-1.115 2.5-2.5 2.5-2.5-1.115-2.5-2.5 1.115-2.5 2.5-2.5z" fill="#fff"/>
<rect fill-opacity="0" rx="3" height="44" width="32" y="1" x="8"/>
<path d="m13.64 37-0.8809 2h22.48l-0.8789-2h-20.72z"/>
<path d="m11.88 41-0.88 2h26l-0.88-2h-24.24z"/>
<path d="m15.52 3c-0.29 0-0.52 0.302-0.52 0.679s0.2301 0.6792 0.518 0.6792h1.718c1.608 0 4.797 1.414 5.623 4.642h0.7195 0.8836 0.7219c0.83-3.228 4.02-4.642 5.63-4.642h1.673c0.29 0 0.52-0.302 0.52-0.679s-0.23-0.679-0.52-0.679h-16.96zm5.747 1.361h5.512c-0.74 0.57-2.62 2.22-2.49 3.765h-0.5438c0.13-1.545-1.75-3.195-2.49-3.765z"/>
</svg>
