<svg width="48" height="48" version="1.1" xmlns="http://www.w3.org/2000/svg">
<g fill="#fff">
 <path d="m9.438 11.5c-0.258 0-0.825-0.079-1.264 0.9s-0.988 2.605-1.617 4.385c-0.63 1.78-1.279 4.589-1.344 5.799-0.154 2.896-0.213 6.043-0.213 8.877 0 2.251 1.961 4.762 3.555 4.762h34.45v-6.336c-7.471-1.618-15.03-5.842-18.69-16.31-0.376-1.076-1.966-2.072-2.754-2.072zm-0.148 1.984h11.71c0.555-0.007 0.77 0.665 0.891 0.984 0.557 1.47 1.33 3.829 1.33 4.562 0 0.428-0.111 0.83-0.604 0.83h-14.95c-0.493 0-0.604-0.402-0.604-0.83 0-0.733 0.774-3.092 1.33-4.562 0.121-0.319 0.336-0.992 0.891-0.984zm16.51 7.08c0.862 1.08 1.729 2.072 2.631 2.975v5.727c-0.808-0.396-1.61-0.808-2.396-1.252-0.09-2.263-0.2-1.539-0.234-4.584zm3.928 4.182c0.64 0.566 1.294 1.111 1.988 1.615 0.097 0.071 0.203 0.133 0.303 0.201v4.283c-0.768-0.297-1.532-0.624-2.291-0.967zm-20.99 1.654a1.5 1.6 0 0 1 1.5 1.6 1.5 1.6 0 0 1 -1.5 1.6 1.5 1.6 0 0 1 -1.5 -1.6 1.5 1.6 0 0 1 1.5 -1.6zm11.65 0a1.5 1.6 0 0 1 1.5 1.6 1.5 1.6 0 0 1 -1.5 1.6 1.5 1.6 0 0 1 -1.5 -1.6 1.5 1.6 0 0 1 1.5 -1.6zm12.7 0.838c0.748 0.436 1.519 0.82 2.275 1.156v3.574c-0.759-0.223-1.517-0.47-2.275-0.74zm3.146 1.527c0.611 0.247 1.213 0.455 1.811 0.637v3.26c-0.601-0.13-1.204-0.273-1.811-0.436zm2.646 0.875c0.48 0.127 0.963 0.242 1.449 0.346v3.098c-0.479-0.07-0.964-0.165-1.449-0.258zm2.211 0.498c0.448 0.082 0.77 0.135 1.18 0.201v2.965c-0.388-0.031-0.786-0.087-1.18-0.135z"/>
 <path d="m5 41v-2.322h2.922v-1.611h4.441v1.625h6.484v-1.629h24.15v1.648c-8.324 0.183-14.61 0.697-17.35 2.289z"/>
 <rect x="10.45" y="7.195" width="12.47" height=".977" rx="0.36" ry="0.488"/>
 <path d="m12.0 8.172c+1.114 0 3.323 1.013+3.895 3.328h+1.111v-0.629h-0.494c+0.091-1.108-1.209-2.29-1.721-2.699z"/>
 <path d="m21.4 8.172c-1.114 0-3.323 1.013-3.895 3.328h-1.111v-0.629h+0.494c-0.091-1.108 1.209-2.29 1.721-2.699z"/>
</g>
</svg>
