<svg width="48" height="48" version="1.1" xmlns="http://www.w3.org/2000/svg">
<g fill="#fff">
 <path d="m7 5v38h4v-4.2222h4.2222v4.2222h17.5555v-4.2222h4.2222v4.2222h4v-38h-4v4.2222h-4.2222v-4.2222h-17.5555v4.2222h-4.2222v-4.2222h-4zm4 8.4444h4.2222v4.2222h-4.2222v-4.2222zm21.7777 0h4.2222v4.2222h-4.2222v-4.2222zm-21.7777 8.4444h4.2222v4.2222h-4.2222v-4.2222zm21.7777 0h4.2222v4.2222h-4.2222v-4.2222zm-21.7777 8.4444h4.2222v4.2222h-4.2222v-4.2222zm21.7777 0h4.2222v4.2222h-4.2222v-4.2222z"/>
</g>
</svg>
