<svg class="an2linux" width="48" height="48" version="1.1" viewBox="0 0 48 48" xmlns="http://www.w3.org/2000/svg">
 <path d="m24 2c-2.485 0-4.5 2.015-4.5 4.5v0.5859c-5.222 2.366-10.5 7.896-10.5 13.91v11.5c1.01-1.48 0.6375-0.9221 1.01-1.48 2-3 3.961-3.979 4.871-5.609 0.91-1.59 0.9112-4.87 0.9082-6.09-3e-3 -1.22-0.3398-3.65 0.9102-6.09s3.811-3.6 7.301-3.6 6.051 1.16 7.301 3.6 0.9132 4.87 0.9102 6.09c-3e-3 1.22-0.0018 4.5 0.9082 6.09 0.91 1.63 2.871 2.609 4.871 5.609 0.3722 0.5583 0 0 1.01 1.48v-11.5c0-6.018-5.278-11.55-10.5-13.91v-0.5859c0-2.485-2.015-4.5-4.5-4.5zm-2.98 12.44c-1.38 0-2.5 1.63-2.5 3.65s1.12 3.65 2.5 3.65c1.37 0 2.49-1.63 2.49-3.65s-1.11-3.65-2.49-3.65zm5.961 0c-1.38 0-2.49 1.63-2.49 3.65s1.12 3.65 2.49 3.65c1.38 0 2.5-1.63 2.5-3.65s-1.12-3.65-2.5-3.65zm-5.98 3.26c0.7186-4.32e-4 1.301 0.5822 1.301 1.301 4.32e-4 0.7186-0.5822 1.301-1.301 1.301-0.7186 4.32e-4 -1.301-0.5822-1.301-1.301-4.32e-4 -0.7186 0.5822-1.301 1.301-1.301zm6 0c0.7186-4.32e-4 1.301 0.5822 1.301 1.301 4.32e-4 0.7186-0.5822 1.301-1.301 1.301-0.7186 4.32e-4 -1.301-0.5822-1.301-1.301-4.32e-4 -0.7186 0.5822-1.301 1.301-1.301zm-10.05 5.891c0 1.577 5.813 5.701 7.051 5.719 1.238-0.01812 7.051-4.142 7.051-5.719 0-0.9081-4.241-1.019-7.051-1.019s-7.051 0.111-7.051 1.019zm1.791 4.26s-3.76 1.2-5.73 3.17-4.4 5.75-5 8h31.98c-0.6-2.25-3.03-6.03-5-8s-5.73-3.17-5.73-3.17-4.012 2.923-5.25 2.957v0.0039c-0.0026-2.1e-5 -0.0072-0.0019-0.0098-2e-3 -0.0026 4.7e-5 -0.0072 0.0019-0.0098 2e-3v-0.0039c-1.238-0.03452-5.25-2.957-5.25-2.957zm-12.69 13.01-0.05469 0.1445h0.01562c0.01278-0.05105 0.02628-0.0938 0.03906-0.1445zm35.89 0c0.01278 0.05073 0.02629 0.09348 0.03906 0.1445h0.01562zm-24.26 0.1641c0.7016 2.918 3.31 4.976 6.311 4.98 3.001-0.0043 5.609-2.063 6.311-4.98z" fill="#fff"/>
</svg>
