<svg class="androidrun" width="48" height="48" version="1.1" viewBox="0 0 48 48" xmlns="http://www.w3.org/2000/svg">
 <path d="m8 5c-1.662 0-3 1.338-3 3v32c0 1.662 1.338 3 3 3h32c1.662 0 3-1.338 3-3v-32c0-1.662-1.338-3-3-3h-32zm24 3a2.75 2.75 0 0 1 2.75 2.75 2.75 2.75 0 0 1 -2.75 2.75 2.75 2.75 0 0 1 -2.75 -2.75 2.75 2.75 0 0 1 2.75 -2.75zm-10.16 4.992h6.949c0.26 0 0.5095 0.101 0.6895 0.291l4.551 4.549 3.186-3.869c0.33-0.41 0.9201-0.4704 1.33-0.1504l0.6602 0.4805c0.4322 0.331 0.4979 0.9571 0.1445 1.371l-4.406 5.361c-0.359 0.4358-1.017 0.4639-1.412 0.06055l-3.234-3.084-4.16 4.619 4.16 4.18c0.2327 0.2287 0.3294 0.5683 0.2539 0.8887l-2.377 11.25c-0.109 0.5373-0.6503 0.8755-1.18 0.7305l-1.182-0.3125c-0.4947-0.125-0.7978-0.625-0.6875-1.125l2.021-9.24-4.342-4.328-4.299 4.828c-0.05 0.06-0.1307 0.1214-0.2207 0.1914-0.24 0.1695-0.5772 0.3184-0.7832 0.3145h-8c-0.5377 0-1.018-0.4626-1-1v-1c0.0165-0.5194 0.4804-1.01 1-1h6.5l9.5-11.5h-3l-4 5c-0.32 0.39-0.9298 0.5402-1.34 0.2402l-0.5176-0.4004c-0.4232-0.327-0.4813-0.9252-0.1445-1.34l4.6-5.631c0.183-0.2222 0.4566-0.3705 0.7441-0.3672l-0.003906-0.007812z" fill="#fff"/>
</svg>
