<svg class="android" width="48" height="48" version="1.1" viewBox="0 0 48 48" xmlns="http://www.w3.org/2000/svg">
 <path d="m24 4a16 16 0 0 0 -16 16 16 16 0 0 0 16 16 16 16 0 0 0 16 -16 16 16 0 0 0 -16 -16zm-7 14.5a3.5 3.5 0 0 1 3.5 3.5 3.5 3.5 0 0 1 -3.5 3.5 3.5 3.5 0 0 1 -3.5 -3.5 3.5 3.5 0 0 1 3.5 -3.5zm14 0a3.5 3.5 0 0 1 3.5 3.5 3.5 3.5 0 0 1 -3.5 3.5 3.5 3.5 0 0 1 -3.5 -3.5 3.5 3.5 0 0 1 3.5 -3.5z" fill="#fff"/>
 <rect x="8" y="31" width="32" height="13" rx="2" ry="2" fill="#fff"/>
 <rect x="8" y="20" width="5" height="14" rx="0" ry="0" fill="#fff"/>
 <rect x="35" y="20" width="5" height="14" rx="0" ry="0" fill="#fff"/>
 <path d="m8.75 4.75c1.013-1.013 2.659-1 3.689 0.02977l4.028 4.028c1.03 1.03 1.043 2.675 0.0298 3.689-1.013 1.013-2.659 1-3.689-0.02979l-4.028-4.028c-1.03-1.03-1.043-2.675-0.02977-3.688z" fill="#fff"/>
 <path d="m31.5 12.5c1.013 1.013 2.659 1 3.689-0.02977l4.028-4.028c1.03-1.03 1.043-2.675 0.0298-3.689-1.013-1.013-2.659-1-3.689 0.02979l-4.028 4.028c-1.03 1.03-1.043 2.675-0.02976 3.689z" fill="#fff"/>
</svg>
