<svg class="android" width="48" height="48" version="1.1" viewBox="0 0 48 48" xmlns="http://www.w3.org/2000/svg" fill="#ffffff">
 <path d="m24 5a19 19 0 0 0 -19 19 19 19 0 0 0 19 19 19 19 0 0 0 19 -19 19 19 0 0 0 -19 -19zm-8 14a3.5 3.5 0 0 1 3.5 3.5 3.5 3.5 0 0 1 -3.5 3.5 3.5 3.5 0 0 1 -3.5 -3.5 3.5 3.5 0 0 1 3.5 -3.5zm16 0a3.5 3.5 0 0 1 3.5 3.5 3.5 3.5 0 0 1 -3.5 3.5 3.5 3.5 0 0 1 -3.5 -3.5 3.5 3.5 0 0 1 3.5 -3.5z"/>
 <rect x="5" y="30" width="38" height="13" rx="2" ry="2"/>
 <rect x="5" y="24" width="5" height="14" rx="0" ry="0"/>
 <rect x="38" y="24" width="5" height="14" rx="0" ry="0"/>
 <path d="m5.89 5.89c1.21-1.21 3.16-1.19 4.39 0.04l4.79 4.79c1.23 1.23 1.24 3.18 0.04 4.39-1.21 1.21-3.16 1.19-4.39-0.04l-4.79-4.79c-1.23-1.23-1.24-3.18-0.04-4.39z"/>
 <path d="m32.89 15.11c1.21 1.21 3.16 1.19 4.39-0.04l4.79-4.79c1.23-1.23 1.24-3.18 0.04-4.39-1.21-1.21-3.16-1.19-4.39 0.04l-4.79 4.79c-1.23 1.23-1.24 3.18-0.04 4.39z"/>
</svg>
