<svg class="android" width="48" height="48" version="1.1" viewBox="0 0 48 48" xmlns="http://www.w3.org/2000/svg" fill="#ffffff">
 <path d="m24 3a19 19 0 0 0 -19 19 19 19 0 0 0 19 19 19 19 0 0 0 19 -19 19 19 0 0 0 -19 -19zm-8 16a3.5 3.5 0 0 1 3.5 3.5 3.5 3.5 0 0 1 -3.5 3.5 3.5 3.5 0 0 1 -3.5 -3.5 3.5 3.5 0 0 1 3.5 -3.5zm16 0a3.5 3.5 0 0 1 3.5 3.5 3.5 3.5 0 0 1 -3.5 3.5 3.5 3.5 0 0 1 -3.5 -3.5 3.5 3.5 0 0 1 3.5 -3.5z"/>
 <rect x="5" y="32" width="38" height="13" rx="2" ry="2"/>
 <rect x="5" y="22" width="5" height="14" rx="0" ry="0"/>
 <rect x="38" y="22" width="5" height="14" rx="0" ry="0"/>
 <path d="m5.894 3.894c1.205-1.205 3.162-1.189 4.387 0.0354l4.791 4.791c1.225 1.225 1.241 3.181 0.03544 4.387-1.205 1.205-3.162 1.189-4.387-0.03543l-4.791-4.791c-1.225-1.225-1.241-3.181-0.0354-4.386z"/>
 <path d="m32.89 13.11c1.205 1.205 3.162 1.189 4.387-0.0354l4.791-4.791c1.225-1.225 1.241-3.181 0.03544-4.387-1.205-1.205-3.162-1.189-4.387 0.03543l-4.791 4.791c-1.225 1.225-1.241 3.181-0.0354 4.387z"/>
</svg>
