<svg class="ankidroid" width="48" height="48" version="1.1" viewBox="0 0 48 48" xmlns="http://www.w3.org/2000/svg">
 <path d="m11 2c-1.662 0-3 1.338-3 3v38c0 1.662 1.338 3 3 3h26c1.662 0 3-1.338 3-3v-38c0-1.662-1.338-3-3-3h-26zm19.81 6.826l0.7539 3.783 3.543 1.523-3.365 1.887-0.3535 3.84-2.834-2.617-3.762 0.8516 1.613-3.504-1.971-3.314 3.83 0.4512 2.545-2.9zm-13.81 16.31l4.734 2.814 5-2.305-1.213 5.375 3.738 4.047-5.486 0.5059-2.693 4.807-2.178-5.062-5.398-1.076 4.141-3.635-0.6445-5.471z" fill="#fff"/>
</svg>
