<svg class="antox" width="48" height="48" version="1.1" viewBox="0 0 48 48" xmlns="http://www.w3.org/2000/svg">
 <path d="m24 4a11 11 0 0 0 -11 11v6h-3c-1.108 0-2 0.892-2 2v19c0 1.108 0.892 2 2 2h28c1.108 0 2-0.892 2-2v-19c0-1.108-0.892-2-2-2h-3v-6a11 11 0 0 0 -11 -11zm0 3a8 8 0 0 1 8 8 8 8 0 0 1 -0.8809 3.633c0.003744-0.001274 0.007976-0.002636 0.01172-0.003906-0.6993 1.586-0.9611 1.857-1.494 2.695-0.532 0.839-0.707 1.066-1.832 2.316s-4.805 4.359-4.805 4.359l0.4355-5.027a8 8 0 0 1 -7.436 -7.973 8 8 0 0 1 8 -8zm-7.221 20.76c0.32-0.04 0.6503 0.1102 0.8203 0.4102l1.73 3a10 10 0 0 1 4.67 -1.164 10 10 0 0 1 4.67 1.164l1.73-3c0.2308-0.3992 0.7367-0.5352 1.137-0.3047 0.3992 0.2308 0.5352 0.7387 0.3047 1.139l-1.77 3.064a10 10 0 0 1 3.93 7.934h-20a10 10 0 0 1 3.93 -7.934l-1.771-3.064c-0.2305-0.3995-0.09531-0.9082 0.3047-1.139 0.0999-0.05816 0.2085-0.09203 0.3145-0.1055zm2.471 6.74a1.25 1.25 0 0 0 -1.25 1.25 1.25 1.25 0 0 0 1.25 1.25 1.25 1.25 0 0 0 1.25 -1.25 1.25 1.25 0 0 0 -1.25 -1.25zm9.5 0a1.25 1.25 0 0 0 -1.25 1.25 1.25 1.25 0 0 0 1.25 1.25 1.25 1.25 0 0 0 1.25 -1.25 1.25 1.25 0 0 0 -1.25 -1.25z" fill="#fff"/>
</svg>
