<svg class="anysoft_keyboard" width="48" height="48" version="1.1" viewBox="0 0 48 48" xmlns="http://www.w3.org/2000/svg" fill="#ffffff">
 <path d="m16 5c-1.662 0-3 1.267-3 2.842v12.32c0 0.04286 0.01171 0.08261 0.01367 0.125 0.06384 1.243 0.5485 2.125 1.604 2.893l9.383 6.824 9.383-6.824c1.051-0.7645 1.539-1.65 1.604-2.893 2e-3 -0.04239 0.01367-0.08214 0.01367-0.125v-12.32c0-1.575-1.338-2.842-3-2.842h-16zm3.25 5.5h1.5l2.25 7.5h-1.5l-0.4453-1.5h-2.109l-0.4453 1.5h-1.5l2.25-7.5zm8 0h2.25c0.8284 0 1.5 0.6716 1.5 1.5h-3.75c-0.4142 0-0.75 0.3356-0.75 0.75s0.3358 0.75 0.75 0.75h1.5c1.243 0 2.25 1.007 2.25 2.25s-1.007 2.25-2.25 2.25h-2.25c-0.8284 0-1.5-0.6715-1.5-1.5h3.75c0.4142 0 0.75-0.3356 0.75-0.75s-0.3358-0.75-0.75-0.75h-1.5c-1.243 0-2.25-1.007-2.25-2.25s1.007-2.25 2.25-2.25zm-7.25 2.443-0.6094 2.057h1.219l-0.6094-2.057z"/>
 <path d="m13 24 0.4391 0.04662 3.561 2.59v1.364h-4z"/>
 <path d="m19 30h2.625l1.375 1v3h-4z"/>
 <rect x="13" y="36" width="22" height="4"/>
 <rect x="13" y="30" width="4" height="4"/>
 <rect x="31" y="30" width="4" height="4"/>
 <rect x="7" y="24" width="4" height="4"/>
 <path d="m26.38 30h2.625v4h-4v-3z"/>
 <rect x="37" y="24" width="4" height="4"/>
 <rect x="7" y="30" width="4" height="4"/>
 <rect x="37" y="30" width="4" height="4"/>
 <path d="m31 26.64 3.625-2.636h0.375v4h-4z"/>
 <rect x="7" y="36" width="4" height="4"/>
 <rect x="37" y="36" width="4" height="4"/>
</svg>
