<svg class="anysoft_keyboard" width="48" height="48" version="1.1" viewBox="0 0 48 48" xmlns="http://www.w3.org/2000/svg" fill="#ffffff">
 <path d="m16 5c-1.662 0-3 1.338-3 3v10c0 1.398 0.4825 2.351 1.617 3.176l9.383 6.824 9.383-6.824c1.131-0.8222 1.617-1.779 1.617-3.176v-10c0-1.662-1.338-3-3-3zm3.25 5.5h1.5l2.25 7.5h-1.5l-0.4453-1.5h-2.109l-0.4453 1.5h-1.5l2.25-7.5zm8 0h2.25c0.8284 0 1.5 0.6716 1.5 1.5h-3.75c-0.4142 0-0.75 0.3356-0.75 0.75s0.3358 0.75 0.75 0.75h1.5c1.243 0 2.25 1.007 2.25 2.25s-1.007 2.25-2.25 2.25h-2.25c-0.8284 0-1.5-0.6715-1.5-1.5h3.75c0.4142 0 0.75-0.3356 0.75-0.75s-0.3358-0.75-0.75-0.75h-1.5c-1.243 0-2.25-1.007-2.25-2.25s1.007-2.25 2.25-2.25zm-7.25 2.443-0.6094 2.057h1.219l-0.6094-2.057z"/>
 <path d="m32.5 24.09v2.909h-4z"/>
 <rect x="22" y="29.5" width="4" height="4"/>
 <rect x="28.5" y="29.5" width="4" height="4"/>
 <rect x="35" y="23" width="4" height="4"/>
 <rect x="35" y="29.5" width="4" height="4"/>
 <rect x="13" y="36" width="22" height="3.5"/>
 <rect x="9" y="23" width="4" height="4"/>
 <path d="m15.5 24.09 4 2.909h-4z"/>
 <rect x="9" y="29.5" width="4" height="4"/>
 <rect x="15.5" y="29.5" width="4" height="4"/>
</svg>
