<svg class="aosp_keyboard" width="48" height="48" version="1.1" viewBox="0 0 48 48" xmlns="http://www.w3.org/2000/svg" fill="#ffffff">
 <path d="m16 2c-1.662 0-3 1.338-3 3v13c0 1.398 0.4825 2.351 1.617 3.176l9.383 6.824 9.383-6.824c1.131-0.8222 1.617-1.779 1.617-3.176v-13c0-1.662-1.338-3-3-3zm3.25 2.5h1.5l2.25 7.5h-1.5l-0.4453-1.5h-2.109l-0.4453 1.5h-1.5l2.25-7.5zm8.75 0a3 3.75 0 0 1 3 3.75 3 3.75 0 0 1 -3 3.75 3 3.75 0 0 1 -3 -3.75 3 3.75 0 0 1 3 -3.75zm0 1.5a1.5 2.25 0 0 0 -1.5 2.25 1.5 2.25 0 0 0 1.5 2.25 1.5 2.25 0 0 0 1.5 -2.25 1.5 2.25 0 0 0 -1.5 -2.25zm-8 0.9434-0.6094 2.057h1.219l-0.6094-2.057zm-0.75 6.557h2.25c0.8284 0 1.5 0.6716 1.5 1.5h-3.75c-0.4142 0-0.75 0.3356-0.75 0.75s0.3358 0.75 0.75 0.75h1.5c1.243 0 2.25 1.007 2.25 2.25s-1.007 2.25-2.25 2.25h-2.25c-0.8284 0-1.5-0.6715-1.5-1.5h3.75c0.4142 0 0.75-0.3356 0.75-0.75s-0.3358-0.75-0.75-0.75h-1.5c-1.243 0-2.25-1.007-2.25-2.25s1.007-2.25 2.25-2.25zm5.75 0h3.75c1.243 0 2.25 1.007 2.25 2.25s-1.007 2.25-2.25 2.25h-2.25v3h-1.5zm1.5 1.5v1.5h2.25a0.75 0.75 0 0 0 0.75 -0.75 0.75 0.75 0 0 0 -0.75 -0.75z"/>
 <path d="m19 26.09 2.625 1.909h-2.625z"/>
 <path d="m29 26.09v1.909h-2.625z"/>
 <path d="m13 24h3.125l0.875 0.6364v3.364h-4z"/>
 <path d="m31 24.64 0.875-0.6364h3.125v4h-4z"/>
 <rect x="7" y="24" width="4" height="4"/>
 <rect x="37" y="24" width="4" height="4"/>
 <rect x="19" y="30" width="4" height="4"/>
 <rect x="25" y="30" width="4" height="4"/>
 <rect x="13" y="30" width="4" height="4"/>
 <rect x="31" y="30" width="4" height="4"/>
 <rect x="7" y="30" width="4" height="4"/>
 <rect x="37" y="30" width="4" height="4"/>
 <rect x="13" y="36" width="22" height="4"/>
 <rect x="7" y="36" width="4" height="4"/>
 <rect x="37" y="36" width="4" height="4"/>
</svg>
