<svg class="apktrack" width="48" height="48" version="1.1" viewBox="0 0 48 48" xmlns="http://www.w3.org/2000/svg" fill="#ffffff">
 <path d="m7 14c-1.108 0-2 0.892-2 2v25c0 1.108 0.892 2 2 2h34c1.108 0 2-0.892 2-2v-25c0-1.108-0.892-2-2-2h-34zm24.54 3.998c0.3776-0.003059 0.7541 0.1389 1.041 0.4258 0.5741 0.574 0.5677 1.505-0.01562 2.088l-1.25 1.25a9 9 0 0 1 1.689 5.238v7 3c0 0.554-0.446 1-1 1h-16c-0.554 0-1-0.446-1-1v-2-8a9 9 0 0 1 1.693 -5.234l-1.246-1.246c-0.5833-0.5833-0.5917-1.516-0.01758-2.09 0.5738-0.5738 1.507-0.5655 2.09 0.01758l1.242 1.242a9 9 0 0 1 5.238 -1.689 9 9 0 0 1 5.234 1.693l1.254-1.254c0.2915-0.2915 0.6692-0.4383 1.047-0.4414z"/>
 <rect x="12" y="9" width="4" height="5"/>
 <rect x="32" y="9" width="4" height="5"/>
 <rect x="16" y="5" width="16" height="4"/>
 <path d="m12 9h4v-4z"/>
 <path d="m32 5 4 4h-4z"/>
</svg>
