<svg class="audinaut" width="48" height="48" version="1.1" viewBox="0 0 48 48" xmlns="http://www.w3.org/2000/svg" fill="#ffffff">
 <path d="m7 5c-1.108 0-2 0.892-2 2v34c0 1.108 0.892 2 2 2h34c1.108 0 2-0.892 2-2v-34c0-1.108-0.892-2-2-2h-34zm17 2.928l0.003906 0.001953c3.125 0 5.471 1.708 7.166 4.199 1.695 2.491 2.781 5.773 3.49 9.043 1.419 6.538 1.322 13.05 1.322 13.06 0 3e-3 -0.001194 0.7922-0.08398 1.691a11.16 11.16 0 0 1 -0.1973 1.355c-0.0934 0.4294-0.2096 0.8116-0.4277 1.094a1.335 1.335 0 0 1 -1.822 0.2852c-0.6335-0.431-1.101-1.371-1.221-2.973-0.2199-2.119 0.006165-5.003-0.6152-7.318-0.312-1.157-0.8227-2.159-1.684-2.875-1.536-1.216-3.827-1.652-5.928-1.652-2.215 0-3.934 0.3323-5.93 1.652-0.8622 0.716-1.377 1.718-1.688 2.875-0.6205 2.315-0.3943 5.199-0.6133 7.318-0.121 1.603-0.5886 2.542-1.221 2.971a1.335 1.335 0 0 1 -1.822 -0.2852c-0.2181-0.2823-0.3343-0.6627-0.4277-1.092a11.26 11.26 0 0 1 -0.1992 -1.357 21.13 21.13 0 0 1 -0.08398 -1.688v-0.005859c0-0.01-0.09673-6.524 1.322-13.06 0.71-3.27 1.797-6.55 3.492-9.041 1.695-2.493 4.041-4.201 7.166-4.201zm0 3.117c-4.671 0-6.558 8.087-6.895 9.898 0 0 2.711-0.875 6.895-0.875s6.895 0.875 6.895 0.875c-0.335-1.813-2.223-9.898-6.895-9.898zm-0.001953 13.87l0.001953 0.001954c2.632 0 4.766 1.372 4.766 3.066 0 1.516-0.9698 2.595-1.232 4.469-0.2644 1.877 0.2461 4.553 0.2461 4.553-0.78-1.091-1.732-1.602-2.074-3.309 0 0-0.5389 0.2197-0.7383 1.723-0.339 2.544-0.4705 2.886-1.895 4.658-0.1291-2.379-0.2279-2.722-0.6445-3.693-0.391-0.917-1.498-2.454-2.252-3.914-0.8315-1.609-0.9414-3.354-0.9414-4.488 0-1.695 2.132-3.066 4.764-3.066z"/>
</svg>
