<svg class="bible" width="48" height="48" version="1.1" viewBox="0 0 48 48" xmlns="http://www.w3.org/2000/svg" fill="#ffffff">
 <path d="m8 5c-1.662 0-3 1.338-3 3v32c0 1.662 1.338 3 3 3h32c1.662 0 3-1.338 3-3v-32c0-1.662-1.338-3-3-3h-32zm28.47 11.46l3.15 2.461c-1.434 1.835-2.838 3.451-4.238 4.877 1.399 1.426 2.804 3.042 4.238 4.877l-3.15 2.461c-1.405-1.798-2.75-3.316-4.049-4.619-2.701 2.177-5.415 3.551-8.258 4.027-5.35 0.897-10.58-1.64-15.79-6.746 5.21-5.106 10.44-7.643 15.79-6.746 2.843 0.476 5.557 1.847 8.258 4.025 1.299-1.303 2.644-2.818 4.049-4.617zm-14.11 4.391c-2.676-0.1304-5.275 1.157-7.873 2.947 3.297 2.45 6.183 3.277 9.025 2.801 1.822-0.306 3.767-1.225 5.85-2.801-2.084-1.577-3.946-2.412-5.85-2.803-0.3856-0.07912-0.7701-0.1259-1.152-0.1445z"/>
</svg>
