<svg class="boinc" width="48" height="48" version="1.1" viewBox="0 0 48 48" xmlns="http://www.w3.org/2000/svg" fill="#ffffff">
 <path d="m11.25 2.75l-4.25 4.25 8.52 8.52a12 12 0 0 1 8.48 -3.52 12 12 0 0 1 5.271 1.229l4.391-4.391a18 18 0 0 0 -9.662 -2.838 18 18 0 0 0 -7.734 1.766l-5.016-5.016zm29.75 4.25l-8.52 8.52a12 12 0 0 1 3.52 8.48 12 12 0 0 1 -1.229 5.271l4.391 4.391a18 18 0 0 0 2.838 -9.662 18 18 0 0 0 -1.766 -7.734l5.016-5.016-4.25-4.25zm-32.16 7.338a18 18 0 0 0 -2.838 9.662 18 18 0 0 0 1.766 7.734l-5.016 5.016 4.25 4.25 8.52-8.52a12 12 0 0 1 -3.52 -8.48 12 12 0 0 1 1.229 -5.271l-4.391-4.391zm15.16 1.662a8 8 0 0 0 -8 8 8 8 0 0 0 8 8 8 8 0 0 0 8 -8 8 8 0 0 0 -8 -8zm8.48 16.48a12 12 0 0 1 -8.48 3.52 12 12 0 0 1 -5.271 -1.229l-4.391 4.391a18 18 0 0 0 9.662 2.838 18 18 0 0 0 7.734 -1.766l5.016 5.016 4.25-4.25-8.52-8.52z"/>
</svg>
