<svg class="bubble" width="48" height="48" version="1.1" viewBox="0 0 48 48" xmlns="http://www.w3.org/2000/svg" fill="#ffffff">
 <path d="m24 2a22 22 0 0 0 -22 22 22 22 0 0 0 22 22 22 22 0 0 0 22 -22 22 22 0 0 0 -22 -22zm-7 11h8.25c2.639 0 7.15 0.9772 7.15 5.535 0 3.057-1.097 3.884-2.658 4.738 1.788 0.477 3.502 2.405 3.502 5.727 0 4.812-3.963 6-7.744 6h-8.5v-22zm5 4v4.5h3.25c1.497 0 2.041-1.003 2.041-2.312s-0.809-2.188-2.041-2.188h-3.25zm0 8.5v5.5h3.5c1.641 0 2.639-0.642 2.639-3 0-1.386-0.8767-2.5-2.639-2.5h-3.5z"/>
 <path d="m40.36 27.84a1.712 1.712 0 0 0 -1.224 0.5l-5.394 5.396-5.394 5.393a1.712 1.712 0 0 0 0.768 2.863l7.368 1.975 7.368 1.974a1.712 1.712 0 0 0 2.096 -2.096l-1.974-7.37-1.975-7.368a1.712 1.712 0 0 0 -1.638 -1.268z"/>
</svg>
