<svg class="chrome" width="48" height="48" version="1.1" viewBox="0 0 48 48" xmlns="http://www.w3.org/2000/svg" fill="#ffffff">
 <path d="m24 2c-12.15 0-22 9.85-22 22l16.5-9.529 0.0059 0.0098c1.67-0.9669 3.565-1.477 5.494-1.481 2.556 3e-3 5.031 0.8959 7 2.525v-12.36c-2.255-0.7643-4.619-1.157-7-1.164zm8.395 1.674c0.1046 0.04296 0.209 0.08636 0.3125 0.1309-0.1038-0.04442-0.208-0.08804-0.3125-0.1309zm1.977 0.9355c0.1169 0.06288 0.2346 0.1258 0.3516 0.1914-0.1166-0.06487-0.2338-0.1287-0.3516-0.1914zm0.6289 0.3613v19.03c-0.0064 4.591-2.863 8.695-7.166 10.29l10.71 6.18c4.734-4.168 7.45-10.17 7.461-16.47-0.008304-7.852-4.2-15.1-11-19.03zm-21.85 17.21-10.7 6.176c2.073 10.25 11.08 17.63 21.54 17.64 3.855-0.0097 7.639-1.032 10.97-2.965l-16.47-9.512 0.0059-0.0098c-3.402-1.961-5.5-5.587-5.506-9.514 0.0011-0.6087 0.0527-1.216 0.1543-1.816z"/>
 <circle cx="24" cy="24" r="7"/>
</svg>
