<svg class="cmbugreport" width="48" height="48" version="1.1" viewBox="0 0 48 48" xmlns="http://www.w3.org/2000/svg" fill="#ffffff">
 <path d="m24 2c-12.15 0-22 9.85-22 22s9.85 22 22 22 22-9.85 22-22-9.85-22-22-22zm-4.748 9.748 2.803 2.803c0.6345-0.1625 1.286-0.2464 1.941-0.25 0.6583 0.0034 1.314 0.08801 1.951 0.252l2.803-2.803 1.871 1.871-2.09 2.09c0.9856 0.6823 1.805 1.577 2.398 2.619h3.57v2.666h-2.75v2.504h2.75v2.666h-2.75v2.504h2.75v2.666h-3.602c-1.432 2.451-4.056 3.959-6.895 3.963-2.839-0.0036-5.464-1.512-6.896-3.963h-3.607v-2.666h2.75v-2.504h-2.75v-2.666h2.75v-2.504h-2.75v-2.666h3.564c0.5952-1.043 1.418-1.939 2.406-2.621l-2.09-2.09z"/>
 <rect x="21.25" y="21" width="5.5" height="2.5"/>
 <rect x="21.25" y="26.17" width="5.5" height="2.5"/>
</svg>
