<?xml-stylesheet type="text/css" href="11-stylesheet_for_svg.css"?>
<svg xmlns="http://www.w3.org/2000/svg" height="48" width="48" version="1.1" viewBox="0 0 48 48" class="cpuz" >
 <g class="cpuz__background background">
  <rect x="5" y="5" width="38" height="38" rx="3" />
 </g>
 <g class="cpuz__foreground foreground"  >
  <rect x="16" y="16" width="16" height="16" rx="2" ry="2"/>
  <circle cx="30" cy="13" r="1"/>
  <circle cx="26" cy="13" r="1"/>
  <circle cx="22" cy="13" r="1"/>
  <circle cx="18" cy="13" r="1"/>
  <circle cx="13" cy="18" r="1"/>
  <circle cx="13" cy="22" r="1"/>
  <circle cx="13" cy="26" r="1"/>
  <circle cx="13" cy="30" r="1"/>
  <circle cx="18" cy="35" r="1"/>
  <circle cx="22" cy="35" r="1"/>
  <circle cx="26" cy="35" r="1"/>
  <circle cx="30" cy="35" r="1"/>
  <circle cx="35" cy="30" r="1"/>
  <circle cx="35" cy="26" r="1"/>
  <circle cx="35" cy="22" r="1"/>
  <circle cx="35" cy="18" r="1"/>
 </g>
</svg>
