<?xml-stylesheet type="text/css" href="11-stylesheet_for_svg.css"?>
<svg xmlns="http://www.w3.org/2000/svg" height="48" width="48" version="1.1" viewBox="0 0 48 48" class="cyanogenmodsystem" >
 <g class="cyanogenmodsystem__background background" >
  <path d="m19 12h10c8.31 0 15 3 15 9v12.41c0 6-6.69 9-15 9h-10c-8.31 0-15-3-15-9v-12.41c0-6 6.69-9 15-9z"/>
  <path d="m39.85 5.107c-0.5456 0.01007-1.055 0.3408-1.271 0.8809l-2.674 6.686c-0.288 0.7201 0.05917 1.53 0.7793 1.818 0.7201 0.288 1.532-0.05917 1.82-0.7793l2.674-6.686c0.288-0.7201-0.05917-1.53-0.7793-1.818-0.18-0.07201-0.367-0.1049-0.5488-0.1016z"/>
  <path d="m8.146 5.107c-0.1819-0.003357-0.3688 0.02955-0.5488 0.1016-0.7201 0.288-1.067 1.098-0.7793 1.818l2.674 6.686c0.288 0.7201 1.1 1.067 1.82 0.7793 0.7201-0.288 1.067-1.098 0.7793-1.818l-2.674-6.686c-0.216-0.5401-0.7259-0.8708-1.271-0.8809z"/>
 </g>
 <g class="cyanogenmodsystem__foreground foreground" >
  <circle cx="13.8" cy="27" r="6"/>
  <circle cx="34.2" cy="27" r="6"/>
  <rect x="23.25" y="35.65" width="1.5" height="1.75" rx="0" ry="0"/>
  <path d="m23.25 37.4a1.75 1.75 0 0 1 -1.237 -0.5126 1.75 1.75 0 0 1 -0.5126 -1.237h1.75z"/>
  <path d="m26.5 35.65a1.75 1.75 0 0 1 -1.75 1.75v-1.75z"/>
 </g>
</svg>
