<?xml-stylesheet type="text/css" href="11-stylesheet_for_svg.css"?>
<svg xmlns="http://www.w3.org/2000/svg" height="48" width="48" version="1.1" viewBox="0 0 48 48" class="an2linux">
 <g class="an2linux__background background">
  <circle cx="24" cy="06.5" r="4.5"/>
  <circle cx="24" cy="39.5" r="6.5"/>
  <rect x="19.5" y="6.5" width="4.5" height="1.5"/>
  <rect x="24.0" y="6.5" width="4.5" height="1.5"/>
  <path d="m19.68 7c-5.28 2.319-10.68 7.913-10.68 14h+15v-14z"/>
  <path d="m28.32 7c+5.28 2.319+10.68 7.913+10.68 14h-15v-14z"/>
  <rect x="09" y="21" width="15" height="12"/>
  <rect x="24" y="21" width="15" height="12"/>
  <path d="m06 41+3-8h+15v8z"/>
  <path d="m42 41-3-8h-15v8z"/>
 </g>
 <g class="an2linux__foreground foreground">
  <circle cx="21" cy="19" r="1.3"/>
  <circle cx="27" cy="19" r="1.3"/>
  <path d="m24 9.63c-3.49 0-6.05 1.16-7.3 3.6s-0.913 4.87-0.91 6.09 0 4.5-0.91 6.09c-0.91 1.63-2.87 2.61-4.87 5.61s-3 6-4 10h+18v-2h-15c+0.6-2.25+2.03-6.03+4-8s+5.73-3.17+5.73 -3.17+4.05 2.95+5.27 2.96v-1.5c-1.22 0-7.06-4.14-7.06-5.72 0-0.91+4.26-1.02+7.06-1.02zm-2.98 4.81c+1.38 0+2.49 1.63+2.49 3.65s-1.12 3.65-2.49 3.65c-1.38 0-2.5-1.63-2.5-3.65 0-2.02+1.12-3.65+2.5-3.65z"/>
  <path d="m24 9.63c+3.49 0+6.05 1.16+7.3 3.6s+0.913 4.87+0.91 6.09 0 4.5+0.91 6.09c+0.91 1.63+2.87 2.61+4.87 5.61s+3 6+4 10h-18v-2h+15c-0.6-2.25-2.03-6.03-4-8s-5.73-3.17-5.73 -3.17-4.05 2.95 -5.27 2.96v-1.5c1.22 0 +7.06-4.14+7.06-5.72 0-0.91-4.26-1.02-7.06-1.02zm+2.98 4.81c-1.38 0-2.49 1.63-2.49 3.65s+1.12 3.65+2.49 3.65c+1.38 0+2.5-1.63+2.5-3.65 0-2.02-1.12-3.65-2.5-3.65z"/>
 </g>
</svg>
