<?xml-stylesheet type="text/css" href="11-stylesheet_for_svg.css"?>
<svg xmlns="http://www.w3.org/2000/svg" height="48" width="48" version="1.1" viewBox="0 0 48 48" class="android" >
 <g class="android__background background">
  <circle cx="24" cy="20" r="16" />
  <rect x="08" y="31" width="32" height="13" rx="2" ry="2" />
  <rect x="08" y="20" width="05" height="14" rx="0" ry="0"/>
  <rect x="35" y="20" width="05" height="14" rx="0" ry="0"/>
  <path d="m08.75 04.75c1.013-1.013 2.659-1 3.689 0.02977l4.028 4.028c1.03 1.03 1.043 2.675 0.0298 3.689-1.013 1.013-2.659+1-3.689-0.02979l-4.028-4.028c-1.03-1.03-1.043-2.675-0.02977-3.688z" />
  <path d="m31.50 12.50c1.013 1.013 2.659+1 3.689-0.02977l4.028-4.028c1.03-1.03 1.043-2.675 0.0298-3.689-1.013-1.013-2.659-1-3.689 0.02979l-4.028 4.028c-1.03 1.03-1.043 2.675-0.02976 3.689z" />
 </g>
 <g class="android__foreground foreground"  >
  <circle cx="17" cy="22" r="3.5"/>
  <circle cx="31" cy="22" r="3.5"/>
 </g>
</svg>
