<?xml-stylesheet type="text/css" href="11-stylesheet_for_svg.css"?>
<svg xmlns="http://www.w3.org/2000/svg" height="48" width="48" version="1.1" viewBox="0 0 48 48" class="androidrun" >
 <g class="androidrun__background background" >
  <rect x="5" y="5" width="38" height="38" rx="3"/>
 </g>
 <g class="androidrun__foreground foreground" >
  <path d="m32 8a2.75 2.75 0 0 0 -2.75 2.75 2.75 2.75 0 0 0 2.75 2.75 2.75 2.75 0 0 0 2.75 -2.75 2.75 2.75 0 0 0 -2.75 -2.75zm-10.16 5c-0.2875-0.0033-0.5611 0.145-0.7441 0.3672l-4.6 5.63c-0.3368 0.4146-0.2782 1.013 0.145 1.34l0.5176 0.4004c0.41 0.3 1.02 0.15 1.34-0.24l4-5h3l-9.5 11.5h-6.5c-0.5196-0.01-0.9835 0.4806-1 1v1c-0.01812 0.5374 0.4623 1 1 1h8c0.206 0.0039 0.5432-0.145 0.7832-0.3145 0.09-0.07 0.17-0.13 0.22-0.19l4.3-4.83 4.34 4.33-2.02 9.24c-0.1103 0.5 0.1928 1 0.6875 1.125l1.182 0.3125c0.5294 0.145 1.069-0.1932 1.178-0.7305l2.377-11.25c0.07549-0.3204-0.02124-0.66-0.2539-0.8887l-4.16-4.18 4.16-4.62 3.236 3.084c0.3953 0.4034 1.053 0.3753 1.412-0.06055l4.406-5.361c0.3534-0.414 0.2872-1.04-0.145-1.371l-0.66-0.48c-0.41-0.32-1-0.26-1.33 0.15l-3.186 3.87-4.55-4.55c-0.18-0.19-0.43-0.29-0.69-0.29h-6.95z"/>
 </g>
</svg>
