<?xml-stylesheet type="text/css" href="11-stylesheet_for_svg.css"?>
<svg xmlns="http://www.w3.org/2000/svg" height="48" width="48" version="1.1" viewBox="0 0 48 48" class="android" >
 <g class="android__background background" >
  <circle cx="24" cy="22" r="19"/>
  <rect x="5" y="32" width="38" height="13" rx="2" ry="2"/>
  <rect x="5" y="22" width="5" height="14" rx="0" ry="0"/>
  <rect x="38" y="22" width="5" height="14" rx="0" ry="0"/>
  <path d="m5.894 3.894c1.205-1.205 3.162-1.189 4.387 0.0354l4.791 4.791c1.225 1.225 1.241 3.181 0.03544 4.387-1.205 1.205-3.162 1.189-4.387-0.03543l-4.791-4.791c-1.225-1.225-1.241-3.181-0.0354-4.386z"/>
  <path d="m32.89 13.11c1.205 1.205 3.162 1.189 4.387-0.0354l4.791-4.791c1.225-1.225 1.241-3.181 0.03544-4.387-1.205-1.205-3.162-1.189-4.387 0.03543l-4.791 4.791c-1.225 1.225-1.241 3.181-0.0354 4.387z"/>
 </g>
 <g class="android__foreground foreground" >
  <circle cx="16" cy="22.5" r="3.5"/>
  <circle cx="32" cy="22.5" r="3.5"/>
 </g>
</svg>
