<?xml-stylesheet type="text/css" href="11-stylesheet_for_svg.css"?>
<svg xmlns="http://www.w3.org/2000/svg" height="48" width="48" version="1.1" viewBox="0 0 48 48" class="antox" >
 <g class="antox__background background" >
  <rect x="8" y="21" width="32" height="23" rx="2"/>
  <circle cx="24" cy="15" r="11"/>
  <rect x="13" y="15" width="22" height="11"/>
 </g>
 <g class="antox__foreground foreground" >
  <path d="m16.78 27.76c-0.106 0.01344-0.2146 0.04784-0.3145 0.106-0.4 0.2305-0.5352 0.7375-0.3047 1.137l1.771 3.065a10 10 0 0 0 -3.93 7.933h20a10 10 0 0 0 -3.93 -7.933l1.77-3.065c0.2305-0.4 0.09454-0.9062-0.3047-1.137-0.4-0.2305-0.9062-0.09454-1.137 0.3047l-1.73 3a10 10 0 0 0 -4.67 -1.165 10 10 0 0 0 -4.67 1.165l-1.73-3c-0.17-0.3-0.5-0.45-0.82-0.41zm2.47 6.74a1.25 1.25 0 0 1 1.25 1.25 1.25 1.25 0 0 1 -1.25 1.25 1.25 1.25 0 0 1 -1.25 -1.25 1.25 1.25 0 0 1 1.25 -1.25zm9.5 0a1.25 1.25 0 0 1 1.25 1.25 1.25 1.25 0 0 1 -1.25 1.25 1.25 1.25 0 0 1 -1.25 -1.25 1.25 1.25 0 0 1 1.25 -1.25z"/>
  <circle cx="24" cy="15" r="8"/>
  <path d="m23.44 22.93-0.44 5.07s3.68-3.11 4.805-4.36 1.3-1.477 1.832-2.316c0.533-0.8388 0.7937-1.11 1.493-2.696-3.433 1.165-7.693 4.304-7.693 4.304z"/>
 </g>
</svg>
