<?xml-stylesheet type="text/css" href="11-stylesheet_for_svg.css"?>
<svg xmlns="http://www.w3.org/2000/svg" height="48" width="48" version="1.1" viewBox="0 0 48 48" class="apktrack">
 <g class="apktrack__background background">
  <rect x="05" y="14" width="38" height="29" rx="2"/>
  <rect x="12" y="09" width="04" height="05"/>
  <rect x="32" y="09" width="04" height="05"/>
  <rect x="16" y="05" width="16" height="04"/>
  <path d="m12 9h4v-4z"/>
  <path d="m32 5 4 4h-4z"/>
 </g>
 <g class="apktrack__foreground foreground">
  <path d="m24 18a9 9 0 0 0 -9 9 9 9 0 0 0 9 9 9 9 0 0 0 9 -9 9 9 0 0 0 -9 -9zm-4 6.6666a1.6666 1.6666 0 0 1 +1.6666 +1.6666 +1.6666 +1.6666 0 0 1 -1.6666 +1.6666 +1.6666 +1.6666 0 0 1 -1.6666 -1.6666 +1.6666 +1.6666 0 0 1 +1.6666 -1.6666zm8 0a +1.6666 1.6666 0 0 1 +1.6666 +1.6666 +1.6666 +1.6666 0 0 1 -1.6666 +1.6666 +1.6666 +1.6666 0 0 1 -1.6666 -1.6666 +1.6666 +1.6666 0 0 1 +1.6666 -1.6666z"/>
  <rect x="15" y="33" width="18" height="5" rx="1" ry="1"/>
  <rect x="15" y="27" width="03" height="8" rx="0" ry="0"/>
  <rect x="30" y="27" width="03" height="8" rx="0" ry="0"/>
  <path d="m15.43 18.43c0.5738-0.5738 1.506-0.5662 2.089+0.01686l2.281+2.281c0.5833+0.5833 0.591+1.515 0.01688+2.089-0.5738+0.5738-1.506 +0.5662-2.089-0.01687l-2.281-2.281c-0.5833-0.5833-0.591-1.515-0.01686-2.089z"/>
  <path d="m28.19 22.81c0.5738+0.5738 1.506+0.5662 2.089-0.01686l2.281-2.281c0.5833-0.5833 0.591-1.515 0.01688-2.089-0.5738-0.5738-1.506
-0.5662-2.089+0.01687l-2.281+2.281c-0.5833+0.5833-0.591+1.515-0.01686+2.089z"/>
 </g>
</svg>
