<?xml-stylesheet type="text/css" href="11-stylesheet_for_svg.css"?>
<svg xmlns="http://www.w3.org/2000/svg" height="48" width="48" version="1.1" viewBox="0 0 48 48" class="applicationsinfo" >
 <g class="applicationsinfo__background background" >
  <path d="m35 8v11h11z" />
  <rect x="5" y="8" width="30" height="29"/>
  <rect x="35" y="19" width="11" height="18"/>
  <rect x="2" y="8" width="6" height="32" rx="3" ry="3"/>
  <rect x="2" y="34" width="44" height="6" rx="3" ry="3"/>
 </g>
 <g class="applicationsinfo__foreground foreground">
  <rect x="33" y="8" width="2" height="10" />
  <rect x="36" y="19" width="10" height="2" />
  <path d="m33 18a3 3 0 0 0 0.8789 2.121 3 3 0 0 0 2.121 0.8789v-2a1 1 0 0 1 -1 -1z" />
  <path d="m18.5 12.5a11.5 11.5 0 0 0 -11.5 11.5 11.5 11.5 0 0 0 11.5 11.5 11.5 11.5 0 0 0 11.5 -11.5 11.5 11.5 0 0 0 -11.5 -11.5zm-1.25 5h2.5v2.5h-2.5zm0 5.5h2.5v8h-2.5z" />
 </g>
</svg>
