<?xml-stylesheet type="text/css" href="11-stylesheet_for_svg.css"?>
<svg xmlns="http://www.w3.org/2000/svg" height="48" width="48" version="1.1" viewBox="0 0 48 48" class="audinaut" >
 <g class="audinaut__background background">
  <rect x="5" y="5" width="38" height="38" rx="2" />
 </g>
 <g class="audinaut__foreground foreground">
  <path d="m24 7.928c-3.125 0-5.471 1.708-7.166 4.201-1.695 2.491-2.783 5.77-3.493 9.04-1.419 6.535-1.321 13.05-1.321 13.06v0.0053a21.13 21.13 0 0 0 0.08346 1.687 11.26 11.26 0 0 0 0.2 1.358c0.09348 0.4291 0.2096 0.8097 0.4277 1.092a1.335 1.335 0 0 0 1.821 0.2852c0.6321-0.4291 1.1-1.367 1.221-2.97 0.219-2.119-0.0067-5.004 0.6138-7.319 0.3107-1.157 0.8248-2.16 1.687-2.876 1.996-1.32 3.714-1.652 5.929-1.652 2.101 0 4.392 0.4358 5.928 1.652 0.8609 0.7158 1.373 1.719 1.685 2.876 0.6214 2.315 0.3939 5.2 0.6138 7.319 0.1202 1.602 0.5885 2.541 1.222 2.972a1.335 1.335 0 0 0 1.821 -0.2852c0.2181-0.2822 0.3343-0.6646 0.4277-1.094a11.16 11.16 0 0 0 0.1982 -1.356c0.08279-0.8992 0.08346-1.687 0.08346-1.69v-0.0018c0-0.0098 0.09759-6.522-1.321-13.06-0.7095-3.27-1.796-6.551-3.491-9.042-1.695-2.491-4.042-4.199-7.167-4.199zm0 3.116c4.672 0 6.559 8.086 6.894 9.899 0 0-2.71-0.8746-6.894-0.8746s-6.894 0.8746-6.894 0.8746c0.3365-1.811 2.223-9.899 6.894-9.899zm-0.0018 13.87c-2.632 0-4.764 1.372-4.764 3.067 0 1.134 0.1092 2.879 0.9407 4.488 0.754 1.46 1.862 2.997 2.253 3.914 0.4166 0.9713 0.516 1.314 0.6451 3.693 1.424-1.772 1.555-2.114 1.894-4.658 0.1994-1.503 0.739-1.723 0.739-1.723 0.3419 1.707 1.294 2.218 2.074 3.309 0 0-0.5113-2.675-0.2469-4.552 0.2626-1.874 1.233-2.953 1.233-4.469 0-1.694-2.134-3.067-4.766-3.067z" />
 </g>
</svg>
