<?xml-stylesheet type="text/css" href="11-stylesheet_for_svg.css"?>
<svg xmlns="http://www.w3.org/2000/svg" height="48" width="48" version="1.1" viewBox="0 0 48 48" class="bible" >
 <g class="bible__background background">
  <rect x="5" y="5" width="38" height="38" rx="3" />
 </g>
 <g class="bible__foreground foreground">
  <path d="m36.47 16.46c-1.405 1.799-2.75 3.316-4.049 4.619-2.701-2.178-5.413-3.551-8.256-4.027-5.35-0.8966-10.58 1.64-15.79 6.746 5.212 5.106 10.44 7.643 15.79 6.746 2.843-0.4765 5.555-1.85 8.256-4.027 1.299 1.303 2.644 2.821 4.049 4.619l3.152-2.461c-1.434-1.835-2.841-3.451-4.24-4.877 1.4-1.426 2.806-3.042 4.24-4.877zm-12.96 4.537c1.904 0.391 3.766 1.224 5.85 2.801-2.083 1.576-4.028 2.495-5.85 2.801-2.842 0.4763-5.728-0.351-9.025-2.801 2.969-2.046 5.94-3.434 9.025-2.801z" />
 </g>
</svg>
