<?xml-stylesheet type="text/css" href="11-stylesheet_for_svg.css"?>
<svg xmlns="http://www.w3.org/2000/svg" height="48" width="48" version="1.1" viewBox="0 0 48 48" class="bubble" >
 <g class="bubble__background background" >
  <circle cx="24" cy="24" r="22"/>
  <path d="m40.36 27.84a1.712 1.712 0 0 0 -1.224 0.5l-5.394 5.396-5.394 5.393a1.712 1.712 0 0 0 0.768 2.863l7.368 1.975 7.368 1.974a1.712 1.712 0 0 0 2.096 -2.096l-1.974-7.37-1.975-7.368a1.712 1.712 0 0 0 -1.638 -1.268z"/>
 </g>
 <g class="bubble__foreground foreground">
  <path d="m17 13v22h8.5c3.781 0 7.744-1.188 7.744-6 0-3.322-1.714-5.25-3.502-5.727 1.561-0.8547 2.658-1.681 2.658-4.738 0-4.558-4.511-5.535-7.15-5.535zm5 4h3.25c1.232 0 2.041 0.8786 2.041 2.188s-0.5443 2.312-2.041 2.312h-3.25zm0 8.5h3.5c1.762 0 2.639 1.114 2.639 2.5 0 2.358-0.9984 3-2.639 3h-3.5z" />
 </g>
</svg>
