<?xml-stylesheet type="text/css" href="11-stylesheet_for_svg.css"?>
<svg xmlns="http://www.w3.org/2000/svg" height="48" width="48" version="1.1" viewBox="0 0 48 48" class="chrome" >
 <g class="chrome__background background" >
  <circle cx="24" cy="24" r="22"/>
 </g>
 <g class="chrome__foreground foreground" >
  <path d="m18.5 14.47-16.5 9.53c0 1.5 0.1411 2.904 0.4385 4.371l18.06-10.43z"/>
  <path d="m31 3.144v20.86h4v-19.05c-1.3-0.753-2.57-1.327-4-1.806z"/>
  <path d="m20.5 30.06-2 3.463 16.5 9.527c1.301-0.7509 2.437-1.57 3.561-2.563z"/>
  <path d="m24 13a11 11 0 0 0 -11 11 11 11 0 0 0 11 11 11 11 0 0 0 11 -11 11 11 0 0 0 -11 -11zm0 4a7 7 0 0 1 7 7 7 7 0 0 1 -7 7 7 7 0 0 1 -7 -7 7 7 0 0 1 7 -7z"/>
 </g>
</svg>
